<svg width="68" height="13" viewBox="0 0 68 13" fill="none" xmlns="http://www.w3.org/2000/svg">
<g id="Group 2085662477">
<g id="Group">
<g id="Group_2">
<path id="Vector" d="M12.5542 4.49766C12.4521 4.18436 12.1811 3.95659 11.8547 3.90904L8.54777 3.42852L7.0701 0.442764C6.77752 -0.147588 5.81051 -0.147588 5.51792 0.442764L4.04025 3.42852L0.741185 3.90904C0.415661 3.95659 0.144724 4.18516 0.0425907 4.49859C-0.0595421 4.8111 0.0253251 5.15482 0.261599 5.38499L2.65435 7.71717L2.0899 11.0076C2.03451 11.3322 2.16786 11.6612 2.43441 11.8551C2.7019 12.0481 3.05597 12.0733 3.34683 11.92L6.29368 10.3661L9.24916 11.92C9.37559 11.9867 9.51412 12.0196 9.65171 12.0196C9.83088 12.0196 10.01 11.9633 10.1616 11.8552C10.4283 11.6604 10.5615 11.3323 10.5061 11.0077L9.94257 7.71731L12.3353 5.38512C12.5716 5.15562 12.6563 4.8111 12.5542 4.49766Z" fill="#4AC2E8"/>
</g>
</g>
<g id="Group_3">
<g id="Group_4">
<path id="Vector_2" d="M26.4053 4.49766C26.3031 4.18436 26.0322 3.95659 25.7057 3.90904L22.3988 3.42852L20.9212 0.442764C20.6286 -0.147588 19.6616 -0.147588 19.369 0.442764L17.8913 3.42852L14.5923 3.90904C14.2667 3.95659 13.9958 4.18516 13.8937 4.49859C13.7915 4.8111 13.8764 5.15482 14.1127 5.38499L16.5054 7.71717L15.941 11.0076C15.8856 11.3322 16.0189 11.6621 16.2855 11.8551C16.5522 12.0481 16.907 12.0733 17.1979 11.92L20.1448 10.3661L23.1002 11.92C23.2267 11.9867 23.3652 12.0196 23.5028 12.0196C23.6819 12.0196 23.8611 11.9633 24.0127 11.8552C24.2793 11.6604 24.4126 11.3323 24.3572 11.0077L23.7936 7.71731L26.1864 5.38512C26.4227 5.15562 26.5074 4.8111 26.4053 4.49766Z" fill="#4AC2E8"/>
</g>
</g>
<g id="Group_5">
<g id="Group_6">
<path id="Vector_3" d="M40.2559 4.49766C40.1537 4.18436 39.8828 3.95659 39.5563 3.90904L36.2494 3.42852L34.7718 0.442764C34.4792 -0.147588 33.5122 -0.147588 33.2196 0.442764L31.7419 3.42852L28.4428 3.90904C28.1173 3.95659 27.8464 4.18516 27.7443 4.49859C27.6421 4.8111 27.727 5.15482 27.9633 5.38499L30.356 7.71717L29.7916 11.0076C29.7362 11.3322 29.8695 11.6612 30.1361 11.8551C30.4036 12.0481 30.7576 12.0733 31.0485 11.92L33.9952 10.3661L36.9507 11.92C37.0771 11.9867 37.2156 12.0196 37.3532 12.0196C37.5324 12.0196 37.7116 11.9633 37.8631 11.8552C38.1298 11.6604 38.263 11.3323 38.2076 11.0077L37.6441 7.71731L40.0368 5.38512C40.2733 5.15562 40.358 4.8111 40.2559 4.49766Z" fill="#4AC2E8"/>
</g>
</g>
<g id="Group_7">
<g id="Group_8">
<path id="Vector_4" d="M54.1069 4.49766C54.0048 4.18436 53.7339 3.95659 53.4074 3.90904L50.1005 3.42852L48.6228 0.442764C48.3303 -0.147588 47.3632 -0.147588 47.0707 0.442764L45.593 3.42852L42.2939 3.90904C41.9684 3.95659 41.6975 4.18516 41.5953 4.49859C41.4932 4.8111 41.5781 5.15482 41.8143 5.38499L44.2071 7.71717L43.6426 11.0076C43.5872 11.3322 43.7206 11.6612 43.9871 11.8551C44.2546 12.0481 44.6087 12.0733 44.8996 11.92L47.8463 10.3661L50.8018 11.92C50.9282 11.9867 51.0667 12.0196 51.2043 12.0196C51.3835 12.0196 51.5626 11.9633 51.7142 11.8552C51.9809 11.6604 52.1141 11.3323 52.0587 11.0077L51.4952 7.71731L53.8879 5.38512C54.1242 5.15562 54.2091 4.8111 54.1069 4.49766Z" fill="#4AC2E8"/>
</g>
</g>
<g id="Group_9">
<g id="Group_10">
<path id="Vector_5" d="M67.9575 4.49766C67.8545 4.18436 67.5845 3.95659 67.258 3.90904L63.9511 3.42852L62.4734 0.442764C62.1808 -0.147588 61.2138 -0.147588 60.9212 0.442764L59.4436 3.42852L56.1445 3.90904C55.819 3.95659 55.548 4.18516 55.4459 4.49859C55.3438 4.8111 55.4286 5.15482 55.6649 5.38499L58.0577 7.71717L57.4932 11.0076C57.4378 11.3322 57.5712 11.6612 57.8377 11.8551C57.9883 11.9641 58.1667 12.0195 58.3459 12.0195C58.4844 12.0195 58.6229 11.9866 58.751 11.9199L61.6978 10.366L64.6541 11.9199C64.9449 12.0749 65.2981 12.0489 65.5657 11.8542C65.8315 11.6602 65.9648 11.3322 65.9094 11.0075L65.3459 7.71704L67.7386 5.38485C67.9748 5.15562 68.0589 4.8111 67.9575 4.49766Z" fill="#4AC2E8"/>
</g>
</g>
</g>
</svg>
